<svg xmlns="http://www.w3.org/2000/svg" viewBox="0 0 48 48" width="48" height="48">
  <rect width="48" height="48" rx="10" fill="#1C4A31"/>
  <!-- brand-git from Tabler Icons, scaled to fit inside the 48×48 background -->
  <g transform="translate(24,24) scale(1.5) translate(-12,-12)"
     fill="none"
     stroke="#ffffff"
     stroke-width="2"
     stroke-linecap="round"
     stroke-linejoin="round">
    <path d="M15 12a1 1 0 1 0 2 0a1 1 0 1 0 -2 0" />
    <path d="M11 8a1 1 0 1 0 2 0a1 1 0 1 0 -2 0" />
    <path d="M11 16a1 1 0 1 0 2 0a1 1 0 1 0 -2 0" />
    <path d="M12 15v-6" />
    <path d="M15 11l-2 -2" />
    <path d="M11 7l-1.9 -1.9" />
    <path d="M13.446 2.6l7.955 7.954a2.045 2.045 0 0 1 0 2.892l-7.955 7.955a2.045 2.045 0 0 1 -2.892 0l-7.955 -7.955a2.045 2.045 0 0 1 0 -2.892l7.955 -7.955a2.045 2.045 0 0 1 2.892 0" />
  </g>
</svg>
